# xmcd CD database file
#
# Track frame offsets:
#	150
#	21177
#	43570
#	61192
#	81897
#	105555
#	117142
#	129429
#	146985
#	170730
#	198312
#	218832
#	238640
#	252207
#
# Disc length: 3528 seconds
#
# Revision: 2
# Processed by: cddbd v1.5.2PL0 Copyright (c) Steve Scherf et al.
# Submitted via: CDex 1.51
#
DISCID=c30dc60e
DTITLE=Theo Nijland - Verstand Van Weemoed
DYEAR=1999
DGENRE=Blues
TTITLE0=Een Eiland
TTITLE1=En Ik Hoop Maar
TTITLE2=Alles Perfect
TTITLE3=Bij Ons In Bed
TTITLE4=Een Soort Van Achterover Vallen
TTITLE5=Bij Nader Inzien
TTITLE6=Fietstassen
TTITLE7=Sap
TTITLE8=Waarom Huil Je
TTITLE9=Een Lichtgewicht
TTITLE10=Chanson
TTITLE11=Ik ben Je Kwijt
TTITLE12=Jij Gaat Nog Lang Niet Dood
TTITLE13=Borsato
EXTD=YEAR: 1999
EXTT0=
EXTT1=
EXTT2=
EXTT3=
EXTT4=
EXTT5=
EXTT6=
EXTT7=
EXTT8=
EXTT9=
EXTT10=
EXTT11=
EXTT12=
EXTT13=
PLAYORDER=
